<svg width="339" height="373" viewBox="0 0 339 373" fill="none" xmlns="http://www.w3.org/2000/svg">
<path d="M210.219 346.8C210.219 346.8 207.313 344 202.372 340.7C201.016 348.8 197.238 358.8 189.875 371C189.875 371 187.453 357.9 179.413 345.6C175.925 351.2 174.375 355.6 174.375 355.6C149.188 329.5 170.113 311 183.288 311C200.144 311 214.966 319.4 210.219 346.8Z" fill="#FF9D33"/>
<path d="M200.241 323.6C201.694 326.9 202.759 331.2 202.953 336.6C202.953 336.6 200.919 334.8 197.431 332.5C196.463 337.9 193.847 344.5 188.713 352.7C188.713 352.7 187.066 344 181.447 335.7C179.025 339.4 177.959 342.4 177.959 342.4C173.794 335.6 172.147 330.2 172.05 325.9C169.725 326.8 168.272 327.5 168.272 327.5C172.244 315.3 180.478 312.6 184.159 312.6C190.747 312.6 197.431 314.6 204.019 324.3C204.019 324.4 202.566 324 200.241 323.6Z" fill="#FFCE31"/>
<path d="M176.216 329.1C176.216 329.1 178.928 325.3 180.962 326.2C180.962 326.2 184.837 332.5 190.456 336C190.456 336 189.294 326.4 190.65 324.7C192.394 322.4 197.141 327.2 197.141 327.2C197.141 321.5 191.134 314.4 185.709 314.4C180.478 314.4 172.922 320.6 176.216 329.1Z" fill="#FFDF85"/>
<path d="M203.244 354.9C205.278 357.9 206.634 361.1 206.634 361.1C210.025 355.3 207.991 351.8 206.537 350.7C204.503 349.1 200.919 351.4 203.244 354.9ZM166.238 355.9C164.203 359.4 164.009 363.8 164.009 363.8C159.166 356.3 161.006 352.1 162.653 350.9C164.784 349.2 168.466 351.8 166.238 355.9ZM177.475 363.7C177.766 366.1 176.797 368.5 176.797 368.5C181.35 365.4 181.35 362.8 180.769 361.7C179.897 360.4 177.184 361 177.475 363.7Z" fill="#FF9D33"/>
<path d="M197.534 305.86L197.035 124.893L186.948 123.728L174.368 126.058L175.632 302.082L186.583 304.349L197.534 305.86Z" fill="#2F2325"/>
<path d="M19.6414 199.007V212.701H108.61V199.007H19.6414Z" fill="#2F2325" stroke="#2F2325" stroke-width="1.79925" stroke-linecap="round" stroke-linejoin="round"/>
<path d="M28.7868 151.737H15.142V206.529H28.7868V151.737Z" fill="#2F2325" stroke="#2F2325" stroke-width="1.79925" stroke-linecap="round" stroke-linejoin="round"/>
<path d="M34.4696 206.763C34.4696 208.411 34.146 210.042 33.5174 211.564C32.8888 213.086 31.9674 214.468 30.806 215.633C29.6446 216.797 28.2659 217.72 26.7487 218.349C25.2316 218.978 23.6058 219.301 21.9643 219.299C21.5552 219.299 21.1462 219.299 20.7517 219.299C18.4764 219.073 16.3062 218.226 14.4772 216.849C12.6483 215.471 11.2306 213.617 10.3782 211.488C9.52586 209.359 9.27151 207.036 9.64282 204.771C10.0141 202.507 10.9969 200.388 12.4843 198.645C13.9716 196.902 15.9066 195.602 18.0788 194.886C20.2511 194.17 22.5774 194.065 24.8049 194.583C27.0324 195.101 29.0757 196.222 30.7127 197.824C32.3497 199.426 33.5177 201.448 34.0897 203.67C34.3392 204.682 34.4667 205.72 34.4696 206.763Z" fill="#ECD6C4" stroke="#2F2325" stroke-width="0.8" stroke-linecap="round" stroke-linejoin="round"/>
<path d="M35.3898 160.182C35.3821 163.507 34.0616 166.694 31.7177 169.043C29.3737 171.393 26.1974 172.714 22.8845 172.718C22.4755 172.718 22.0664 172.718 21.6574 172.718C19.3809 172.499 17.2078 171.658 15.3745 170.286C13.5413 168.914 12.118 167.063 11.2596 164.936C10.4012 162.808 10.1405 160.485 10.5059 158.22C10.8713 155.954 11.8488 153.832 13.332 152.085C14.8152 150.338 16.7474 149.033 18.9183 148.311C21.0892 147.589 23.4158 147.479 25.6449 147.992C27.874 148.505 29.9203 149.621 31.5612 151.22C33.2021 152.819 34.3747 154.838 34.9516 157.059C35.2322 158.077 35.3795 159.127 35.3898 160.182Z" fill="#ECD6C4" stroke="#2F2325" stroke-width="0.8" stroke-linecap="round" stroke-linejoin="round"/>
<path d="M44.8128 141.005C44.8128 146.838 42.5041 152.432 38.3945 156.556C34.2849 160.68 28.7111 162.998 22.8993 162.998C22.1689 162.998 21.4384 162.998 20.7518 162.91C16.7656 162.513 12.9639 161.027 9.76003 158.614C6.55616 156.201 4.07264 152.953 2.57942 149.222C1.08621 145.492 0.640418 141.422 1.29051 137.455C1.9406 133.488 3.6617 129.776 6.26674 126.722C8.87178 123.667 12.2611 121.389 16.0663 120.132C19.8715 118.876 23.947 118.691 27.8498 119.596C31.7526 120.502 35.3334 122.464 38.203 125.269C41.0726 128.074 43.1212 131.615 44.1262 135.506C44.5792 137.304 44.8099 139.151 44.8128 141.005Z" fill="#DD4444" stroke="#2F2325" stroke-width="0.8" stroke-linecap="round" stroke-linejoin="round"/>
<path d="M54.9951 102.238L43.009 123.049L42.3619 116.342L33.9668 125.422L47.9681 98.4997L54.9951 102.238Z" fill="#2F2325" stroke="#2F2325" stroke-width="0.8" stroke-linecap="round" stroke-linejoin="round"/>
<path d="M57.9172 101.227L53.14 110.244L42.4901 104.57L47.2526 95.5379C48.0061 94.1243 49.2862 93.0673 50.8135 92.5975C52.3407 92.1278 53.9911 92.2835 55.4044 93.0307C56.8193 93.7844 57.8785 95.0707 58.3496 96.6072C58.8207 98.1438 58.6651 99.8051 57.9172 101.227Z" fill="#ECD6C4" stroke="#2F2325" stroke-width="0.8" stroke-linecap="round" stroke-linejoin="round"/>
<path d="M46.3028 123.674C46.5367 122.149 46.3145 120.588 45.6644 119.19C45.0143 117.792 43.9655 116.618 42.6507 115.818C41.3359 115.018 39.8142 114.627 38.2781 114.695C36.7419 114.763 35.2605 115.287 34.0211 116.201C32.7818 117.114 31.8402 118.376 31.3156 119.827C30.791 121.277 30.7069 122.851 31.0739 124.35C31.441 125.848 32.2427 127.204 33.3776 128.245C34.5125 129.286 35.9297 129.966 37.4497 130.199C38.458 130.355 39.4872 130.31 40.4782 130.067C41.4692 129.823 42.4026 129.386 43.2249 128.78C44.0473 128.174 44.7424 127.411 45.2706 126.535C45.7987 125.659 46.1495 124.687 46.3028 123.674Z" fill="#ECD6C4" stroke="#2F2325" stroke-width="0.8" stroke-linecap="round" stroke-linejoin="round"/>
<path d="M25.3098 88.7494L24.667 125.932L16.7343 125.8L17.3625 88.6175L25.3098 88.7494Z" fill="#2F2325" stroke="#2F2325" stroke-width="0.8" stroke-linecap="round" stroke-linejoin="round"/>
<path d="M27.4576 86.5061L27.2969 96.7695L15.2298 96.4762L15.3905 86.2129C15.4039 85.4177 15.5731 84.6328 15.8887 83.9033C16.2043 83.1737 16.66 82.5137 17.2298 81.9609C17.7996 81.4081 18.4723 80.9734 19.2095 80.6816C19.9467 80.3897 20.734 80.2466 21.5263 80.2602C22.3268 80.2714 23.1171 80.4428 23.8508 80.7643C24.5845 81.0859 25.2469 81.5511 25.7992 82.1327C26.3516 82.7144 26.7827 83.4008 27.0675 84.1517C27.3522 84.9027 27.4849 85.7031 27.4576 86.5061Z" fill="#ECD6C4" stroke="#2F2325" stroke-width="0.8" stroke-linecap="round" stroke-linejoin="round"/>
<path d="M20.9419 126.973C25.2343 126.973 28.7139 123.481 28.7139 119.173C28.7139 114.865 25.2343 111.373 20.9419 111.373C16.6496 111.373 13.1699 114.865 13.1699 119.173C13.1699 123.481 16.6496 126.973 20.9419 126.973Z" fill="#ECD6C4" stroke="#2F2325" stroke-width="0.8" stroke-linecap="round" stroke-linejoin="round"/>
<path d="M44.8129 141.005C44.8129 146.837 42.5042 152.431 38.3946 156.556C34.285 160.68 28.7113 162.997 22.8994 162.997C22.169 162.997 21.4385 162.997 20.7519 162.909C19.9124 159.655 19.8272 156.251 20.5029 152.959C21.1787 149.667 22.5973 146.574 24.6499 143.918C26.7025 141.262 29.3345 139.113 32.3436 137.637C35.3526 136.161 38.6588 135.397 42.008 135.404C42.7238 135.404 43.4689 135.404 44.1555 135.506C44.5988 137.305 44.8195 139.152 44.8129 141.005Z" fill="#DD4444" stroke="#2F2325" stroke-width="0.8" stroke-linecap="round" stroke-linejoin="round"/>
<path d="M155.156 207.16C158.876 191.201 149.002 175.237 133.102 171.503C117.201 167.769 101.294 177.679 97.5737 193.637C93.853 209.595 103.727 225.559 119.628 229.293C135.528 233.028 151.435 223.118 155.156 207.16Z" fill="#ECD6C4"/>
<path d="M287.035 295.481L297.971 303.671L330.621 259.758L319.685 251.568L287.035 295.481Z" fill="#2F2325" stroke="#2F2325" stroke-width="1.79925" stroke-linecap="round" stroke-linejoin="round"/>
<path d="M322.52 263.081L330.68 252.106L259.375 198.706L251.214 209.681L322.52 263.081Z" fill="#2F2325" stroke="#2F2325" stroke-width="1.79925" stroke-linecap="round" stroke-linejoin="round"/>
<path d="M315.254 247.963C316.238 246.64 317.472 245.524 318.885 244.679C320.299 243.835 321.865 243.278 323.493 243.041C325.121 242.804 326.78 242.892 328.374 243.299C329.968 243.705 331.467 244.424 332.785 245.412L333.735 246.189C335.424 247.736 336.659 249.718 337.304 251.92C337.95 254.121 337.981 256.459 337.395 258.677C336.809 260.896 335.628 262.911 333.981 264.502C332.334 266.094 330.283 267.203 328.052 267.706C325.821 268.21 323.495 268.09 321.327 267.36C319.159 266.629 317.232 265.316 315.756 263.563C314.28 261.81 313.311 259.685 312.955 257.418C312.598 255.151 312.868 252.829 313.735 250.705C314.127 249.732 314.637 248.811 315.254 247.963Z" fill="#ECD6C4" stroke="#2F2325" stroke-width="0.8" stroke-linecap="round" stroke-linejoin="round"/>
<path d="M286.723 283.049C288.575 280.288 291.444 278.379 294.699 277.741C297.954 277.103 301.327 277.789 304.078 279.647C304.414 279.867 304.736 280.116 305.057 280.366C306.821 281.827 308.152 283.745 308.905 285.913C309.658 288.08 309.804 290.413 309.328 292.658C308.852 294.903 307.771 296.974 306.204 298.646C304.637 300.317 302.643 301.526 300.439 302.139C298.235 302.753 295.906 302.748 293.705 302.125C291.504 301.503 289.515 300.286 287.954 298.608C286.394 296.93 285.322 294.854 284.855 292.608C284.388 290.361 284.544 288.028 285.306 285.864C285.66 284.87 286.136 283.924 286.723 283.049Z" fill="#ECD6C4" stroke="#2F2325" stroke-width="0.8" stroke-linecap="round" stroke-linejoin="round"/>
<path d="M249.172 298.756L269.73 300.783L270.507 292.845L249.949 290.818L249.172 298.756Z" fill="#2F2325" stroke="#2F2325" stroke-width="1.79925" stroke-linecap="round" stroke-linejoin="round"/>
<path d="M247.921 288.547L258.06 289.544L256.877 301.596L246.738 300.599C245.146 300.443 243.68 299.659 242.664 298.419C241.647 297.179 241.163 295.585 241.318 293.987C241.477 292.387 242.261 290.916 243.499 289.897C244.737 288.877 246.327 288.392 247.921 288.547Z" fill="#ECD6C4" stroke="#2F2325" stroke-width="0.8" stroke-linecap="round" stroke-linejoin="round"/>
<path d="M268.228 293.679C269.833 291.277 271.895 289.217 274.295 287.616C276.695 286.016 279.386 284.906 282.214 284.35C285.042 283.794 287.951 283.804 290.776 284.378C293.6 284.953 296.283 286.08 298.673 287.697C299.272 288.107 299.842 288.533 300.397 288.987C303.485 291.549 305.815 294.911 307.133 298.709C308.45 302.507 308.705 306.594 307.869 310.527C307.033 314.46 305.139 318.087 302.393 321.015C299.646 323.943 296.153 326.06 292.291 327.134C288.43 328.208 284.35 328.199 280.493 327.108C276.636 326.018 273.152 323.886 270.418 320.947C267.684 318.007 265.805 314.371 264.986 310.435C264.168 306.498 264.44 302.412 265.773 298.62C266.378 296.875 267.203 295.214 268.228 293.679Z" fill="#DD4444" stroke="#2F2325" stroke-width="0.8" stroke-linecap="round" stroke-linejoin="round"/>
<path d="M244.62 316.522L271.792 296.127L276.161 301.977L248.988 322.357L244.62 316.522Z" fill="#2F2325" stroke="#2F2325" stroke-width="1.79925" stroke-linecap="round" stroke-linejoin="round"/>
<path d="M241.8 316.214L249.265 310.54L255.898 319.337L248.433 324.952C247.26 325.833 245.788 326.21 244.339 326.001C242.889 325.792 241.582 325.014 240.704 323.838C239.863 322.674 239.506 321.227 239.711 319.803C239.916 318.379 240.665 317.092 241.8 316.214Z" fill="#ECD6C4" stroke="#2F2325" stroke-width="0.8" stroke-linecap="round" stroke-linejoin="round"/>
<path d="M279.71 302.417C280.056 300.911 279.947 299.337 279.4 297.893C278.852 296.449 277.889 295.201 276.634 294.306C275.378 293.412 273.886 292.913 272.347 292.871C270.808 292.829 269.291 293.247 267.989 294.071C266.687 294.896 265.658 296.09 265.034 297.502C264.409 298.914 264.216 300.48 264.479 302.003C264.742 303.525 265.45 304.935 266.513 306.053C267.576 307.17 268.945 307.946 270.448 308.282C272.451 308.729 274.548 308.364 276.283 307.265C278.018 306.166 279.25 304.424 279.71 302.417Z" fill="#ECD6C4" stroke="#2F2325" stroke-width="0.8" stroke-linecap="round" stroke-linejoin="round"/>
<path d="M294.115 337.019L298.147 309.044L304.122 309.895L300.105 337.87L294.115 337.019Z" fill="#2F2325" stroke="#2F2325" stroke-width="1.79925" stroke-linecap="round" stroke-linejoin="round"/>
<path d="M292.289 338.5L293.385 330.803L302.457 332.107L301.361 339.79C301.277 340.389 301.076 340.966 300.77 341.487C300.463 342.007 300.058 342.463 299.576 342.826C299.095 343.19 298.546 343.454 297.963 343.605C297.379 343.756 296.772 343.79 296.175 343.705C294.972 343.531 293.888 342.885 293.159 341.909C292.431 340.933 292.118 339.707 292.289 338.5Z" fill="#ECD6C4" stroke="#2F2325" stroke-width="0.8" stroke-linecap="round" stroke-linejoin="round"/>
<path d="M306.46 308.062C305.772 306.986 304.782 306.139 303.615 305.628C302.448 305.117 301.156 304.964 299.902 305.19C298.649 305.415 297.49 306.008 296.572 306.894C295.654 307.78 295.018 308.919 294.745 310.167C294.472 311.415 294.573 312.717 295.037 313.907C295.5 315.098 296.305 316.124 297.349 316.855C298.393 317.587 299.629 317.992 300.903 318.019C302.176 318.046 303.428 317.693 304.502 317.006C305.942 316.079 306.957 314.617 307.324 312.94C307.691 311.263 307.38 309.509 306.46 308.062Z" fill="#ECD6C4" stroke="#2F2325" stroke-width="0.8" stroke-linecap="round" stroke-linejoin="round"/>
<path d="M267.22 333.295L285.335 304.499L291.485 308.37L273.385 337.181L267.22 333.295Z" fill="#2F2325" stroke="#2F2325" stroke-width="1.79925" stroke-linecap="round" stroke-linejoin="round"/>
<path d="M264.488 333.999L269.44 326.082L278.805 331.946L273.838 339.878C273.056 341.119 271.817 341.999 270.391 342.326C268.965 342.653 267.467 342.4 266.226 341.623C264.991 340.841 264.114 339.6 263.789 338.171C263.463 336.742 263.714 335.242 264.488 333.999Z" fill="#ECD6C4" stroke="#2F2325" stroke-width="0.8" stroke-linecap="round" stroke-linejoin="round"/>
<path d="M294.991 307.52C294.775 305.993 294.111 304.565 293.085 303.417C292.058 302.269 290.715 301.453 289.226 301.073C287.737 300.692 286.169 300.764 284.721 301.279C283.272 301.794 282.009 302.729 281.091 303.966C280.173 305.203 279.641 306.685 279.564 308.226C279.487 309.766 279.867 311.294 280.656 312.618C281.446 313.941 282.609 314.999 283.999 315.657C285.388 316.316 286.941 316.545 288.461 316.317C290.488 316.016 292.313 314.921 293.537 313.272C294.761 311.623 295.284 309.555 294.991 307.52Z" fill="#ECD6C4" stroke="#2F2325" stroke-width="0.8" stroke-linecap="round" stroke-linejoin="round"/>
<path d="M131.858 213.669C139.163 210.611 142.615 202.189 139.569 194.857C136.522 187.525 128.13 184.061 120.825 187.119C113.52 190.177 110.068 198.599 113.114 205.93C116.161 213.262 124.553 216.727 131.858 213.669Z" fill="#2F2325" stroke="#2F2325" stroke-width="1.79925" stroke-linecap="round" stroke-linejoin="round"/>
<path d="M261.432 225.866C275.163 216.995 279.129 198.632 270.29 184.851C261.451 171.07 243.154 167.09 229.423 175.961C215.692 184.832 211.726 203.195 220.565 216.976C229.404 230.757 247.701 234.737 261.432 225.866Z" fill="#ECD6C4"/>
<path d="M258.466 206.921C261.766 199.7 258.609 191.162 251.414 187.851C244.22 184.539 235.713 187.707 232.413 194.928C229.113 202.148 232.27 210.686 239.464 213.998C246.659 217.31 255.166 214.141 258.466 206.921Z" fill="#2F2325" stroke="#2F2325" stroke-width="1.79925" stroke-linecap="round" stroke-linejoin="round"/>
<path d="M243.86 162.807C225.263 158.599 185.001 157.089 185.001 157.089C175.3 157.397 148.303 158.555 129.706 162.821C126.185 163.624 123.121 165.788 121.18 168.843C119.238 171.898 118.575 175.598 119.333 179.14L136.557 260.015C137.403 263.937 139.56 267.45 142.669 269.973C145.777 272.495 149.652 273.876 153.65 273.885H220.048C224.046 273.876 227.92 272.495 231.029 269.973C234.138 267.45 236.294 263.937 237.14 260.015L254.35 179.14C255.105 175.579 254.426 171.863 252.461 168.803C250.496 165.742 247.404 163.587 243.86 162.807Z" fill="#DD4444"/>
<path d="M235.387 161.253C215.212 158.232 185.045 157.089 185.045 157.089C170.273 157.513 155.536 158.737 140.896 160.754L160.414 273.885H213.459L235.387 161.253Z" fill="#ECD6C4"/>
<path d="M199 299H174V308H199V299Z" fill="#ECD6C4" stroke="white" stroke-width="0.8" stroke-linecap="round" stroke-linejoin="round"/>
<path d="M202.458 181.677H170.143C163.543 181.677 158.193 187.046 158.193 193.67V209.505C158.193 216.129 163.543 221.498 170.143 221.498H202.458C209.058 221.498 214.409 216.129 214.409 209.505V193.67C214.409 187.046 209.058 181.677 202.458 181.677Z" fill="#2F2325"/>
<path d="M176.863 198.083H167.762V207.218H176.863V198.083Z" fill="#FF0000" stroke="#FF0000" stroke-width="0.8" stroke-linecap="round" stroke-linejoin="round"/>
<path d="M190.844 198.083H181.743V207.218H190.844V198.083Z" fill="white" stroke="white" stroke-width="0.8" stroke-linecap="round" stroke-linejoin="round"/>
<path d="M204.839 198.083H195.738V207.218H204.839V198.083Z" fill="white" stroke="white" stroke-width="0.8" stroke-linecap="round" stroke-linejoin="round"/>
<path d="M253.454 141.59C263.654 128.756 270.037 113.293 271.869 96.9799C273.702 80.6668 270.909 64.1658 263.813 49.3747C256.716 34.5836 245.604 22.1032 231.754 13.3688C217.904 4.63436 201.879 0.000701904 185.522 0.000701904C169.165 0.000701904 153.14 4.63436 139.29 13.3688C125.44 22.1032 114.328 34.5836 107.231 49.3747C100.135 64.1658 97.3423 80.6668 99.1748 96.9799C101.007 113.293 107.391 128.756 117.59 141.59H253.454Z" fill="#DD4444"/>
<path d="M238.699 54.2927H130.212C123.613 54.2927 118.262 59.6624 118.262 66.2862V104.876C118.262 111.5 123.613 116.87 130.212 116.87H238.699C245.299 116.87 250.649 111.5 250.649 104.876V66.2862C250.649 59.6624 245.299 54.2927 238.699 54.2927Z" fill="#ECD6C4"/>
<path d="M132.579 83.0448C134.014 79.013 136.629 75.5104 140.081 72.9959C143.534 70.4814 147.662 69.0724 151.926 68.9536C156.19 68.8347 160.391 70.0115 163.977 72.3298C167.563 74.648 170.368 77.9995 172.023 81.9451" stroke="#2F2325" stroke-width="8.99623" stroke-linecap="round" stroke-linejoin="round"/>
<path d="M198.013 83.0448C199.447 79.013 202.062 75.5104 205.515 72.9959C208.967 70.4814 213.096 69.0724 217.36 68.9536C221.624 68.8347 225.824 70.0115 229.411 72.3298C232.997 74.648 235.801 77.9995 237.457 81.9451" stroke="#2F2325" stroke-width="8.99623" stroke-linecap="round" stroke-linejoin="round"/>
<path d="M185.858 41.9328C192.513 41.9344 199.063 40.2634 204.909 37.0723C210.755 33.8812 215.712 29.2716 219.327 23.6641L227.567 10.8642C214.511 3.62767 199.818 -0.11296 184.903 0.00259841C169.988 0.118157 155.355 4.08601 142.411 11.524L154.814 26.9776C158.545 31.6413 163.271 35.4058 168.644 37.994C174.016 40.5821 179.899 41.9281 185.858 41.9328Z" fill="#ECD6C4"/>
<path d="M118 96L131.759 105H235.713L251 96" stroke="black" stroke-width="3"/>
</svg>
