<svg width="74" height="65" viewBox="0 0 74 65" fill="none" xmlns="http://www.w3.org/2000/svg">
<path d="M65.9257 65.0001C70.2688 59.1084 72.9868 52.0098 73.7671 44.5209C74.5473 37.032 73.3583 29.4568 70.3366 22.6667C67.3148 15.8765 62.5832 10.1471 56.6859 6.13734C50.7885 2.12761 43.965 0.000427246 37 0.000427246C30.035 0.000427246 23.2115 2.12761 17.3141 6.13734C11.4168 10.1471 6.68516 15.8765 3.66345 22.6667C0.641739 29.4568 -0.54735 37.032 0.232948 44.5209C1.01325 52.0098 3.73124 59.1084 8.07433 65.0001H65.9257Z" fill="#DD4444"/>
<path d="M59.6428 24.9243H13.4488C10.6386 24.9243 8.36041 27.3894 8.36041 30.4302V48.1459C8.36041 51.1867 10.6386 53.6517 13.4488 53.6517H59.6428C62.4531 53.6517 64.7313 51.1867 64.7313 48.1459V30.4302C64.7313 27.3894 62.4531 24.9243 59.6428 24.9243Z" fill="#ECD6C4"/>
<path d="M37.1432 19.2502C39.9769 19.2509 42.7657 18.4838 45.255 17.0189C47.7444 15.5539 49.8551 13.4378 51.3945 10.8635L54.9029 4.98746C49.3435 1.66536 43.0871 -0.0518567 36.7364 0.00119286C30.3857 0.0542424 24.1546 1.87577 18.6432 5.29035L23.9245 12.3847C25.5132 14.5257 27.5255 16.2538 29.8132 17.442C32.1008 18.6301 34.6056 19.248 37.1432 19.2502Z" fill="#ECD6C4"/>
<path d="M8.24878 44.071L14.1073 48.2026H58.3713L64.8808 44.071" stroke="black" stroke-width="2"/>
<ellipse cx="22.7805" cy="36.2667" rx="6.59997" ry="4.59072" fill="#FFCE31"/>
<ellipse cx="50.8837" cy="35.8076" rx="6.59997" ry="4.59072" fill="#FFCE31"/>
<path d="M14.4566 38.1236C15.0675 36.2727 16.181 34.6648 17.651 33.5104C19.1211 32.3561 20.8791 31.7093 22.6948 31.6547C24.5104 31.6001 26.299 32.1404 27.826 33.2046C29.353 34.2689 30.5472 35.8075 31.2522 37.6188" stroke="#2F2325" stroke-width="3" stroke-linecap="round" stroke-linejoin="round"/>
<path d="M42.3185 38.1236C42.9295 36.2727 44.0429 34.6648 45.513 33.5104C46.983 32.3561 48.7411 31.7093 50.5567 31.6547C52.3724 31.6001 54.1609 32.1404 55.6879 33.2046C57.2149 34.2689 58.4092 35.8075 59.1141 37.6188" stroke="#2F2325" stroke-width="3" stroke-linecap="round" stroke-linejoin="round"/>
<path d="M14.4774 38.103C15.0814 38.6281 16.1823 39.0843 17.6358 39.4118C19.0893 39.7393 20.8276 39.9228 22.6228 39.9383C24.418 39.9537 26.1863 39.8005 27.6962 39.4986C29.206 39.1966 30.3867 38.7601 31.0837 38.2463" stroke="#2F2325" stroke-width="3" stroke-linecap="round" stroke-linejoin="round"/>
<path d="M42.1546 38.103C42.7741 38.6281 43.9033 39.0843 45.394 39.4118C46.8848 39.7393 48.6676 39.9228 50.5088 39.9383C52.3501 39.9537 54.1638 39.8005 55.7123 39.4986C57.2609 39.1966 58.4719 38.7601 59.1868 38.2463" stroke="#2F2325" stroke-width="3" stroke-linecap="round" stroke-linejoin="round"/>
</svg>
